<svg width="170" height="145" viewBox="0 0 170 145" fill="none" xmlns="http://www.w3.org/2000/svg">
<circle cx="2.5" cy="2.5" r="2.5" fill="black" fill-opacity="0.25"/>
<circle cx="17.5" cy="2.5" r="2.5" fill="black" fill-opacity="0.25"/>
<circle cx="32.5" cy="2.5" r="2.5" fill="black" fill-opacity="0.25"/>
<circle cx="47.5" cy="2.5" r="2.5" fill="black" fill-opacity="0.25"/>
<circle cx="62.5" cy="2.5" r="2.5" fill="black" fill-opacity="0.25"/>
<circle cx="77.5" cy="2.5" r="2.5" fill="black" fill-opacity="0.25"/>
<circle cx="92.5" cy="2.5" r="2.5" fill="black" fill-opacity="0.25"/>
<circle cx="107.5" cy="2.5" r="2.5" fill="black" fill-opacity="0.25"/>
<circle cx="122.5" cy="2.5" r="2.5" fill="black" fill-opacity="0.25"/>
<circle cx="137.5" cy="2.5" r="2.5" fill="black" fill-opacity="0.25"/>
<circle cx="152.5" cy="2.5" r="2.5" fill="black" fill-opacity="0.25"/>
<circle cx="167.5" cy="2.5" r="2.5" fill="black" fill-opacity="0.25"/>
<circle cx="2.5" cy="22.5" r="2.5" fill="black" fill-opacity="0.25"/>
<circle cx="17.5" cy="22.5" r="2.5" fill="black" fill-opacity="0.25"/>
<circle cx="32.5" cy="22.5" r="2.5" fill="black" fill-opacity="0.25"/>
<circle cx="47.5" cy="22.5" r="2.5" fill="black" fill-opacity="0.25"/>
<circle cx="62.5" cy="22.5" r="2.5" fill="black" fill-opacity="0.25"/>
<circle cx="77.5" cy="22.5" r="2.5" fill="black" fill-opacity="0.25"/>
<circle cx="92.5" cy="22.5" r="2.5" fill="black" fill-opacity="0.25"/>
<circle cx="107.5" cy="22.5" r="2.5" fill="black" fill-opacity="0.25"/>
<circle cx="122.5" cy="22.5" r="2.5" fill="black" fill-opacity="0.25"/>
<circle cx="137.5" cy="22.5" r="2.5" fill="black" fill-opacity="0.25"/>
<circle cx="152.5" cy="22.5" r="2.5" fill="black" fill-opacity="0.25"/>
<circle cx="167.5" cy="22.5" r="2.5" fill="black" fill-opacity="0.25"/>
<circle cx="2.5" cy="42.5" r="2.5" fill="black" fill-opacity="0.25"/>
<circle cx="17.5" cy="42.5" r="2.5" fill="black" fill-opacity="0.25"/>
<circle cx="32.5" cy="42.5" r="2.5" fill="black" fill-opacity="0.25"/>
<circle cx="47.5" cy="42.5" r="2.5" fill="black" fill-opacity="0.25"/>
<circle cx="62.5" cy="42.5" r="2.5" fill="black" fill-opacity="0.25"/>
<circle cx="77.5" cy="42.5" r="2.5" fill="black" fill-opacity="0.25"/>
<circle cx="92.5" cy="42.5" r="2.5" fill="black" fill-opacity="0.25"/>
<circle cx="107.5" cy="42.5" r="2.5" fill="black" fill-opacity="0.25"/>
<circle cx="122.5" cy="42.5" r="2.5" fill="black" fill-opacity="0.25"/>
<circle cx="137.5" cy="42.5" r="2.5" fill="black" fill-opacity="0.25"/>
<circle cx="152.5" cy="42.5" r="2.5" fill="black" fill-opacity="0.25"/>
<circle cx="167.5" cy="42.5" r="2.5" fill="black" fill-opacity="0.25"/>
<circle cx="2.5" cy="62.5" r="2.5" fill="black" fill-opacity="0.25"/>
<circle cx="17.5" cy="62.5" r="2.5" fill="black" fill-opacity="0.25"/>
<circle cx="32.5" cy="62.5" r="2.5" fill="black" fill-opacity="0.25"/>
<circle cx="47.5" cy="62.5" r="2.5" fill="black" fill-opacity="0.25"/>
<circle cx="62.5" cy="62.5" r="2.5" fill="black" fill-opacity="0.25"/>
<circle cx="77.5" cy="62.5" r="2.5" fill="black" fill-opacity="0.25"/>
<circle cx="92.5" cy="62.5" r="2.5" fill="black" fill-opacity="0.25"/>
<circle cx="107.5" cy="62.5" r="2.5" fill="black" fill-opacity="0.25"/>
<circle cx="122.5" cy="62.5" r="2.5" fill="black" fill-opacity="0.25"/>
<circle cx="137.5" cy="62.5" r="2.5" fill="black" fill-opacity="0.25"/>
<circle cx="152.5" cy="62.5" r="2.5" fill="black" fill-opacity="0.25"/>
<circle cx="167.5" cy="62.5" r="2.5" fill="black" fill-opacity="0.25"/>
<circle cx="2.5" cy="82.5" r="2.5" fill="black" fill-opacity="0.25"/>
<circle cx="17.5" cy="82.5" r="2.5" fill="black" fill-opacity="0.25"/>
<circle cx="32.5" cy="82.5" r="2.5" fill="black" fill-opacity="0.25"/>
<circle cx="47.5" cy="82.5" r="2.5" fill="black" fill-opacity="0.25"/>
<circle cx="62.5" cy="82.5" r="2.5" fill="black" fill-opacity="0.25"/>
<circle cx="77.5" cy="82.5" r="2.5" fill="black" fill-opacity="0.25"/>
<circle cx="92.5" cy="82.5" r="2.5" fill="black" fill-opacity="0.25"/>
<circle cx="107.5" cy="82.5" r="2.5" fill="black" fill-opacity="0.25"/>
<circle cx="122.5" cy="82.5" r="2.5" fill="black" fill-opacity="0.25"/>
<circle cx="137.5" cy="82.5" r="2.5" fill="black" fill-opacity="0.25"/>
<circle cx="152.5" cy="82.5" r="2.5" fill="black" fill-opacity="0.25"/>
<circle cx="167.5" cy="82.5" r="2.5" fill="black" fill-opacity="0.25"/>
<circle cx="2.5" cy="102.5" r="2.5" fill="black" fill-opacity="0.25"/>
<circle cx="17.5" cy="102.5" r="2.5" fill="black" fill-opacity="0.25"/>
<circle cx="32.5" cy="102.5" r="2.5" fill="black" fill-opacity="0.25"/>
<circle cx="47.5" cy="102.5" r="2.5" fill="black" fill-opacity="0.25"/>
<circle cx="62.5" cy="102.5" r="2.5" fill="black" fill-opacity="0.25"/>
<circle cx="77.5" cy="102.5" r="2.5" fill="black" fill-opacity="0.25"/>
<circle cx="92.5" cy="102.5" r="2.5" fill="black" fill-opacity="0.25"/>
<circle cx="107.5" cy="102.5" r="2.5" fill="black" fill-opacity="0.25"/>
<circle cx="122.5" cy="102.5" r="2.5" fill="black" fill-opacity="0.25"/>
<circle cx="137.5" cy="102.5" r="2.5" fill="black" fill-opacity="0.25"/>
<circle cx="152.5" cy="102.5" r="2.5" fill="black" fill-opacity="0.25"/>
<circle cx="167.5" cy="102.5" r="2.5" fill="black" fill-opacity="0.25"/>
<circle cx="2.5" cy="122.5" r="2.5" fill="black" fill-opacity="0.25"/>
<circle cx="17.5" cy="122.5" r="2.5" fill="black" fill-opacity="0.25"/>
<circle cx="32.5" cy="122.5" r="2.5" fill="black" fill-opacity="0.25"/>
<circle cx="47.5" cy="122.5" r="2.5" fill="black" fill-opacity="0.25"/>
<circle cx="62.5" cy="122.5" r="2.5" fill="black" fill-opacity="0.25"/>
<circle cx="77.5" cy="122.5" r="2.5" fill="black" fill-opacity="0.25"/>
<circle cx="92.5" cy="122.5" r="2.5" fill="black" fill-opacity="0.25"/>
<circle cx="107.5" cy="122.5" r="2.5" fill="black" fill-opacity="0.25"/>
<circle cx="122.5" cy="122.5" r="2.5" fill="black" fill-opacity="0.25"/>
<circle cx="137.5" cy="122.5" r="2.5" fill="black" fill-opacity="0.25"/>
<circle cx="152.5" cy="122.5" r="2.5" fill="black" fill-opacity="0.25"/>
<circle cx="167.5" cy="122.5" r="2.5" fill="black" fill-opacity="0.25"/>
<circle cx="2.5" cy="142.5" r="2.5" fill="black" fill-opacity="0.25"/>
<circle cx="17.5" cy="142.5" r="2.5" fill="black" fill-opacity="0.25"/>
<circle cx="32.5" cy="142.5" r="2.5" fill="black" fill-opacity="0.25"/>
<circle cx="47.5" cy="142.5" r="2.5" fill="black" fill-opacity="0.25"/>
<circle cx="62.5" cy="142.5" r="2.5" fill="black" fill-opacity="0.25"/>
<circle cx="77.5" cy="142.5" r="2.5" fill="black" fill-opacity="0.25"/>
<circle cx="92.5" cy="142.5" r="2.5" fill="black" fill-opacity="0.25"/>
<circle cx="107.5" cy="142.5" r="2.5" fill="black" fill-opacity="0.25"/>
<circle cx="122.5" cy="142.5" r="2.5" fill="black" fill-opacity="0.25"/>
<circle cx="137.5" cy="142.5" r="2.5" fill="black" fill-opacity="0.25"/>
<circle cx="152.5" cy="142.5" r="2.5" fill="black" fill-opacity="0.25"/>
<circle cx="167.5" cy="142.5" r="2.5" fill="black" fill-opacity="0.25"/>
</svg>
