<svg width="72" height="69" viewBox="0 0 72 69" fill="none" xmlns="http://www.w3.org/2000/svg">
<path d="M33.6519 0.349605C33.6548 0.162287 33.5044 0.00809999 33.3159 0.00521814C33.1274 0.00233629 32.9723 0.151851 32.9694 0.339169L32.5865 25.0708C32.5836 25.2581 32.7341 25.4123 32.9225 25.4152C33.111 25.418 33.2662 25.2685 33.2691 25.0812L33.6519 0.349605Z" fill="#CDCDCD"/>
<path d="M54.0535 3.91828C54.1729 3.77327 54.1513 3.55956 54.0054 3.44095C53.8595 3.32235 53.6445 3.34375 53.5251 3.48876L35.2887 25.6474C35.1694 25.7924 35.1909 26.0061 35.3368 26.1247C35.4828 26.2433 35.6978 26.2219 35.8171 26.0769L54.0535 3.91828Z" fill="#CDCDCD"/>
<path d="M71.6205 28.5346C71.8087 28.5238 71.9524 28.3634 71.9416 28.1764C71.9307 27.9894 71.7693 27.8465 71.5811 27.8573L34.7478 29.9732C34.5596 29.984 34.4158 30.1444 34.4267 30.3314C34.4376 30.5184 34.599 30.6613 34.7871 30.6504L71.6205 28.5346Z" fill="#CDCDCD"/>
<path d="M62.4844 55.3428C62.6261 55.4664 62.8418 55.4523 62.9661 55.3115C63.0904 55.1707 63.0763 54.9564 62.9346 54.8328L38.5279 33.5541C38.3862 33.4306 38.1705 33.4446 38.0462 33.5854C37.9219 33.7262 37.936 33.9405 38.0777 34.0641L62.4844 55.3428Z" fill="#CDCDCD"/>
<path d="M38.7049 67.8676C38.7335 68.0527 38.9077 68.1798 39.094 68.1513C39.2804 68.1229 39.4082 67.9497 39.3796 67.7646L34.5588 36.5677C34.5301 36.3825 34.3559 36.2555 34.1696 36.2839C33.9833 36.3123 33.8554 36.4855 33.884 36.6707L38.7049 67.8676Z" fill="#CDCDCD"/>
<path d="M17.7573 66.6019C17.6894 66.7766 17.777 66.973 17.9528 67.0405C18.1287 67.1079 18.3263 67.0209 18.3941 66.8461L30.5272 35.6032C30.5951 35.4284 30.5075 35.2321 30.3316 35.1646C30.1558 35.0971 29.9582 35.1841 29.8903 35.3589L17.7573 66.6019Z" fill="#CDCDCD"/>
<path d="M4.98481 56.845C4.85268 56.9786 4.85455 57.1934 4.98899 57.3247C5.12343 57.456 5.33954 57.4542 5.47167 57.3206L28.9919 33.5373C29.1241 33.4036 29.1222 33.1889 28.9878 33.0576C28.8533 32.9262 28.6372 32.9281 28.5051 33.0617L4.98481 56.845Z" fill="#CDCDCD"/>
<path d="M0.769261 32.0411C0.581097 32.0523 0.437721 32.213 0.449021 32.4C0.460322 32.587 0.622019 32.7295 0.810184 32.7183L28.1505 31.0865C28.3387 31.0753 28.482 30.9146 28.4707 30.7276C28.4594 30.5406 28.2977 30.3981 28.1096 30.4093L0.769261 32.0411Z" fill="#CDCDCD"/>
<path d="M5.88109 9.40572C5.73332 9.2894 5.51865 9.31416 5.40161 9.46102C5.28458 9.60788 5.30949 9.82122 5.45726 9.93754L31.1995 30.2002C31.3473 30.3165 31.562 30.2918 31.679 30.1449C31.7961 29.998 31.7711 29.7847 31.6234 29.6684L5.88109 9.40572Z" fill="#CDCDCD"/>
<path d="M33.9198 2.15613C26.9474 10.418 22.6112 14.1541 11.8471 14.4619C13.2335 23.4598 11.9406 26.9815 8.07861 32.1181C13.1858 37.2139 13.9412 41.187 13.4622 49.2392C17.5213 50.8242 19.4284 52.5318 22.0759 57.2647C29.7811 54.1823 32.7183 57.1568 38.2266 61.545L38.765 63.1501C43.0731 50.5884 46.17 46.3529 53.8388 47.6341C55.6937 35.9349 59.4437 32.0423 68.9134 27.8378C55.5197 24.4408 52.1125 19.4149 50.6091 6.97144C43.4837 9.26084 39.7139 8.99574 33.9198 2.15613Z" stroke="#CDCDCD" stroke-width="2"/>
<g clip-path="url(#clip0_31_15)">
<path d="M20.7236 44.6472C19.8848 44.6472 19.4484 43.6255 20.0508 43.0233L21.8105 41.2642V37.5824C21.8105 37.3299 21.9109 37.0882 22.0893 36.9098L25.1473 33.853C25.5188 33.4814 26.1212 33.4814 26.4929 33.853C26.8647 34.2244 26.8647 34.8269 26.4929 35.1982L23.714 37.9765V41.6581C23.714 41.9105 23.6136 42.1525 23.4352 42.3309L21.3967 44.3687C21.2108 44.5543 20.9672 44.6472 20.7236 44.6472Z" fill="#7B4400"/>
<path d="M20.0509 34.1793L16.9931 31.1225C16.6214 30.7509 16.6214 30.1487 16.9931 29.7771C17.3646 29.4058 17.9673 29.4058 18.3388 29.7771L20.7237 32.1613L23.1086 29.7771C23.2871 29.5987 23.5292 29.4984 23.7815 29.4984H25.82C26.3456 29.4984 26.7716 29.9245 26.7716 30.4497C26.7716 30.9751 26.3456 31.401 25.82 31.401H24.1757L21.3968 34.1793C21.0248 34.5509 20.4224 34.5506 20.0509 34.1793Z" fill="#7B4400"/>
<path d="M25.82 27.3253H22.7623C22.51 27.3253 22.2679 27.225 22.0895 27.0466L19.0317 23.9898C18.66 23.6185 18.66 23.016 19.0317 22.6447C19.4034 22.2731 20.0059 22.2731 20.3773 22.6447L23.1565 25.4227H25.8203C26.3456 25.4227 26.7719 25.8486 26.7719 26.374C26.7719 26.8995 26.3456 27.3253 25.82 27.3253Z" fill="#7B4400"/>
<path d="M29.8972 22.2307C29.6536 22.2307 29.41 22.1378 29.2244 21.952L27.4644 20.1928H23.7815C23.5292 20.1928 23.2871 20.0925 23.1086 19.9141L16.9931 13.8004C16.6214 13.429 16.6214 12.8266 16.9931 12.4552C17.3646 12.0836 17.9673 12.0836 18.3388 12.4552L24.1757 18.2903H27.8587C28.111 18.2903 28.3531 18.3903 28.5315 18.5687L30.57 20.6068C30.9417 20.9781 30.9417 21.5804 30.57 21.952C30.3842 22.1378 30.1408 22.2307 29.8972 22.2307Z" fill="#7B4400"/>
<path d="M45.1863 44.6471C44.9427 44.6471 44.6991 44.5542 44.5135 44.3684L42.4748 42.3306C42.2963 42.1522 42.1962 41.9102 42.1962 41.658V37.9762L39.417 35.1982C39.0456 34.8266 39.0456 34.2243 39.417 33.8527C39.7887 33.4814 40.3912 33.4814 40.7629 33.8527L43.8206 36.9095C43.9991 37.0878 44.0994 37.3299 44.0994 37.5821V41.2638L45.8591 43.0232C46.4613 43.6252 46.0254 44.6471 45.1863 44.6471Z" fill="#673900"/>
<path d="M45.1863 34.4577C44.9427 34.4577 44.6991 34.3651 44.5135 34.1793L41.7343 31.401H40.09C39.5644 31.401 39.1384 30.9751 39.1384 30.4497C39.1384 29.9245 39.5644 29.4984 40.09 29.4984H42.1285C42.3808 29.4984 42.6229 29.5987 42.8013 29.7771L45.1863 32.1613L47.5712 29.7771C47.9427 29.4058 48.5454 29.4055 48.9168 29.7771C49.2886 30.1485 49.2886 30.7509 48.9168 31.1225L45.8591 34.1793C45.6732 34.3648 45.4296 34.4577 45.1863 34.4577Z" fill="#673900"/>
<path d="M43.1478 27.3253H40.09C39.5644 27.3253 39.1384 26.8995 39.1384 26.374C39.1384 25.8486 39.5644 25.4227 40.09 25.4227H42.7535L45.5327 22.6447C45.9042 22.2731 46.5066 22.2731 46.8783 22.6447C47.25 23.016 47.25 23.6182 46.8783 23.9898L43.8206 27.0466C43.6422 27.225 43.4 27.3253 43.1478 27.3253Z" fill="#673900"/>
<path d="M36.0129 22.2307C35.7693 22.2307 35.5259 22.1378 35.3401 21.952C34.9683 21.5804 34.9683 20.9781 35.3401 20.6066L37.3786 18.5687C37.557 18.3903 37.7991 18.29 38.0514 18.29H41.7344L47.5713 12.4552C47.9428 12.0836 48.5452 12.0836 48.9169 12.4552C49.2886 12.8266 49.2886 13.4288 48.9169 13.8004L42.8014 19.9139C42.623 20.0925 42.3809 20.1926 42.1286 20.1926H38.4456L36.6859 21.952C36.5001 22.1378 36.2565 22.2307 36.0129 22.2307Z" fill="#673900"/>
<path d="M32.955 43.6282C28.4961 43.6282 24.8684 40.0019 24.8684 35.5445V28.4118C24.8684 23.9544 28.4961 20.3281 32.955 20.3281C37.4139 20.3281 41.0416 23.9544 41.0416 28.4118V35.5445C41.0416 40.0019 37.4139 43.6282 32.955 43.6282Z" fill="#FFD700"/>
<path d="M34.9934 22.2307C34.4678 22.2307 31.442 22.2307 30.9164 22.2307C30.3908 22.2307 29.9648 21.8046 29.9648 21.2794V19.2151C29.9648 17.5778 31.2896 16.2522 32.9284 16.2522C34.5979 16.2522 35.945 17.6023 35.945 19.2668V21.2792C35.945 21.8048 35.519 22.2307 34.9934 22.2307Z" fill="#A0622F"/>
<path d="M35.9449 20.9005C35.0201 20.5307 34.0108 20.3278 32.9551 20.3278V43.6278C37.4142 43.6278 41.0417 40.0016 41.0417 35.5446V28.4117C41.0417 25.0094 38.9286 22.0914 35.9449 20.9005Z" fill="#FFA000"/>
<path d="M35.9449 19.2668V21.2791C35.9449 21.8048 35.5192 22.2304 34.9933 22.2304H32.9551V16.2532C34.6127 16.267 35.9449 17.611 35.9449 19.2668Z" fill="#7B4400"/>
<path d="M32.9549 20.3281C31.0556 20.3281 29.3076 20.9863 27.9263 22.086V28.4118C27.9263 31.1837 30.1821 33.439 32.9549 33.439C35.7276 33.439 37.9835 31.1837 37.9835 28.4118V22.086C36.6022 20.9863 34.8541 20.3281 32.9549 20.3281Z" fill="#595959"/>
<path d="M37.9837 28.4118V22.086C36.6024 20.9863 34.8543 20.3281 32.9551 20.3281V33.4388C35.7278 33.439 37.9837 31.1837 37.9837 28.4118Z" fill="#333333"/>
</g>
<defs>
<clipPath id="clip0_31_15">
<rect width="32.4812" height="32.4706" fill="white" transform="translate(16.7144 12.1765)"/>
</clipPath>
</defs>
</svg>
